<?xml version="1.0" encoding="utf-8"?>
<!-- Generator: Adobe Illustrator 26.1.0, SVG Export Plug-In . SVG Version: 6.00 Build 0)  -->
<svg version="1.1" xmlns="http://www.w3.org/2000/svg" xmlns:xlink="http://www.w3.org/1999/xlink" x="0px" y="0px"
	 viewBox="0 0 3000 3000" style="enable-background:new 0 0 3000 3000;" xml:space="preserve">
<style type="text/css">
	.st0{fill:url(#SVGID_1_);}
	.st1{fill:url(#SVGID_00000052826081614739449970000013682216992938748321_);}
	.st2{fill:url(#SVGID_00000176042814294987706180000003285794555597496714_);}
	.st3{fill:url(#SVGID_00000089572118111163383850000013820726499746128010_);}
	.st4{fill:url(#SVGID_00000130621103884155761850000005032637828506113466_);}
	.st5{fill:#FF8A3B;}
	.st6{display:none;fill:#FF5500;stroke:#1D1D1B;stroke-width:1.5;stroke-miterlimit:10;}
	.st7{font-family:'Gotham-Black';}
	.st8{font-size:110px;}
	.st9{display:none;}
	.st10{display:inline;}
	.st11{fill:url(#SVGID_00000132060006779408588830000008766007705437669024_);}
	.st12{fill:url(#SVGID_00000154394582510116733820000003147661114737792132_);}
	.st13{fill:url(#SVGID_00000153686711250385431580000017951492251976828546_);}
	.st14{fill:url(#SVGID_00000149382494308389742590000012668195877991921342_);}
	.st15{fill:url(#SVGID_00000134969883436274455090000000710869463778490791_);}
	.st16{fill:url(#SVGID_00000116918083335063783730000005687624643611004817_);}
	.st17{fill:url(#SVGID_00000135655330050939599810000015762120990129966501_);}
</style>
<g id="Camada_1">
	<g>
		<linearGradient id="SVGID_1_" gradientUnits="userSpaceOnUse" x1="233.728" y1="1738.4098" x2="1096.9442" y2="1738.4098">
			<stop  offset="6.178454e-02" style="stop-color:#FFFA00"/>
			<stop  offset="0.118" style="stop-color:#FEEA00"/>
			<stop  offset="0.2073" style="stop-color:#FED700"/>
			<stop  offset="0.2992" style="stop-color:#FDCC00"/>
			<stop  offset="0.3972" style="stop-color:#FDC800"/>
			<stop  offset="0.9912" style="stop-color:#FF8A3B"/>
			<stop  offset="1" style="stop-color:#E95F32"/>
			<stop  offset="1" style="stop-color:#E39D2D"/>
		</linearGradient>
		<path class="st0" d="M984.1,1758.8c0-21.1,1.2-41.9,3.5-62.3c-62.9-36.6-145.4-62.2-243.4-83.5c-141.4-32.1-176.4-52.5-176.4-99.2
			v-2.9c0-36.5,33.5-65.6,102.1-65.6c90.4,0,192.5,35,285.8,100.6l141.4-199.8c-110.8-88.9-246.4-135.6-419.9-135.6
			c-245,0-395.2,137.1-395.2,326.6v2.9c0,210,167.7,271.2,384.9,320.8c138.5,32.1,172.1,55.4,172.1,97.7v2.9
			c0,43.7-40.8,70-116.7,70c-118.1,0-230.4-42.3-331-122.5l-157.5,188.1c125.4,112.3,297.5,169.1,478.3,169.1
			c180.8,0,317.4-66,378.1-182.6c-67.2-86.9-106-197-106-321.9V1758.8z"/>
		
			<linearGradient id="SVGID_00000164513057987525238360000010379951414213258938_" gradientUnits="userSpaceOnUse" x1="1007.9388" y1="1758.8237" x2="1917.6368" y2="1758.8237">
			<stop  offset="0" style="stop-color:#FFEF26"/>
			<stop  offset="1.783161e-02" style="stop-color:#FFEA21"/>
			<stop  offset="0.102" style="stop-color:#FED70F"/>
			<stop  offset="0.1886" style="stop-color:#FDCC04"/>
			<stop  offset="0.2809" style="stop-color:#FDC800"/>
			<stop  offset="0.6685" style="stop-color:#F18F34"/>
			<stop  offset="0.8876" style="stop-color:#FF8A3B"/>
			<stop  offset="1" style="stop-color:#FF8A3B"/>
		</linearGradient>
		<path style="fill:url(#SVGID_00000164513057987525238360000010379951414213258938_);" d="M1764,1672.8h-230.2v207.1H1735v123.9
			c-42.3,27.7-94.8,42.3-163.3,42.3c-161.9,0-277-118.1-277-282.9v-2.9c0-156,113.7-280,261-280c100.6,0,173.5,35,246.4,96.2
			l115.6-138.9v-100.7c-97-69-211.4-108.9-363.5-108.9c-294,0-516.2,201.4-546.2,468.5c87.7,51,137.1,123.1,137.1,234.4v2.9
			c0,56.4-12.1,106.6-34.6,149.9c99.1,128.2,260.1,205.9,449.5,205.9c140.4,0,260.6-39.4,357.6-97.2v-463.8
			C1876.1,1693.8,1822.5,1672.8,1764,1672.8z"/>
		
			<linearGradient id="SVGID_00000157310132652909769220000012523816911436507030_" gradientUnits="userSpaceOnUse" x1="1004.4647" y1="1890.1024" x2="1190.8829" y2="1890.1024">
			<stop  offset="0" style="stop-color:#FFEF26"/>
			<stop  offset="0.9416" style="stop-color:#FDC800"/>
		</linearGradient>
		<path style="fill:url(#SVGID_00000157310132652909769220000012523816911436507030_);" d="M1145.1,1930.9
			c0-111.2-49.5-183.4-137.1-234.4c-2.3,20.4-3.5,41.2-3.5,62.3v2.9c0,124.9,38.8,235,106,321.9c22.5-43.3,34.6-93.5,34.6-149.9
			V1930.9z"/>
		
			<linearGradient id="SVGID_00000155107773851940190110000016172013978434231168_" gradientUnits="userSpaceOnUse" x1="1938.0508" y1="1738.4098" x2="2766.272" y2="1738.4098">
			<stop  offset="0" style="stop-color:#FFEF26"/>
			<stop  offset="1.783161e-02" style="stop-color:#FFEA21"/>
			<stop  offset="0.102" style="stop-color:#FED70F"/>
			<stop  offset="0.1886" style="stop-color:#FDCC04"/>
			<stop  offset="0.2809" style="stop-color:#FDC800"/>
			<stop  offset="0.5222" style="stop-color:#F19E34"/>
			<stop  offset="0.8357" style="stop-color:#FF8A3B"/>
			<stop  offset="1" style="stop-color:#FF8A3B"/>
		</linearGradient>
		<path style="fill:url(#SVGID_00000155107773851940190110000016172013978434231168_);" d="M2218,2008.2v-161.9h489.9v-223.1H2218
			v-154.6h541v-126.6c0-63-51-114-114-114h-706.9v108.9c17.4,12.4,34.3,25.7,50.7,39.9l-50.7,60.9v291
			c52.4,43.9,85.7,109.8,85.7,183.4v220c-26.1,21.5-54.7,41.8-85.7,60.3v56.4h714.2c63,0,114-51,114-114v-126.6H2218z"/>
		
			<linearGradient id="SVGID_00000058572330738178457440000014531864202648321179_" gradientUnits="userSpaceOnUse" x1="1917.6368" y1="1387.2999" x2="1968.2924" y2="1387.2999">
			<stop  offset="0" style="stop-color:#FF8A3B"/>
			<stop  offset="1.112438e-04" style="stop-color:#FF8A3B"/>
			<stop  offset="3.344249e-03" style="stop-color:#FF8A3B"/>
			<stop  offset="4.912294e-03" style="stop-color:#FF8A3B"/>
			<stop  offset="5.896834e-03" style="stop-color:#FF8A3B"/>
			<stop  offset="1" style="stop-color:#FF8A3B"/>
		</linearGradient>
		<path style="fill:url(#SVGID_00000058572330738178457440000014531864202648321179_);" d="M1968.3,1376.8
			c-16.4-14.2-33.3-27.5-50.7-39.9v100.7L1968.3,1376.8z"/>
		<path class="st5" d="M2003.3,1912.1c0-73.7-33.3-139.5-85.7-183.4v463.8c31-18.4,59.5-38.8,85.7-60.3V1912.1z"/>
	</g>
	<text transform="matrix(1 0 0 1 661.6945 2012.0146)" class="st6 st7 st8">SISTEMA DE GESTÃO EGEFAZ</text>
	<g class="st9">
		<g class="st10">
			
				<linearGradient id="SVGID_00000152960084873538055460000006541376962659468207_" gradientUnits="userSpaceOnUse" x1="1698.2759" y1="1161.521" x2="1698.2759" y2="915.4105">
				<stop  offset="0" style="stop-color:#FFEF26"/>
				<stop  offset="1.783161e-02" style="stop-color:#FFEA21"/>
				<stop  offset="0.102" style="stop-color:#FED70F"/>
				<stop  offset="0.1886" style="stop-color:#FDCC04"/>
				<stop  offset="0.2809" style="stop-color:#FDC800"/>
				<stop  offset="0.6685" style="stop-color:#F18F34"/>
				<stop  offset="0.8876" style="stop-color:#E95F32"/>
				<stop  offset="1" style="stop-color:#E3312D"/>
			</linearGradient>
			<path style="fill:url(#SVGID_00000152960084873538055460000006541376962659468207_);" d="M1578.4,1161.5
				c0-135.9,54.4-246.1,121.4-246.1c57.2,0,105.1,80.1,118,188c3.7,30.9-20.5,58.1-51.6,58.1H1578.4z"/>
			
				<linearGradient id="SVGID_00000178173558971290375100000002531968846078201505_" gradientUnits="userSpaceOnUse" x1="1699.7897" y1="928.5496" x2="1699.7897" y2="785.2252">
				<stop  offset="0" style="stop-color:#FFEF26"/>
				<stop  offset="1.783161e-02" style="stop-color:#FFEA21"/>
				<stop  offset="0.102" style="stop-color:#FED70F"/>
				<stop  offset="0.1886" style="stop-color:#FDCC04"/>
				<stop  offset="0.2809" style="stop-color:#FDC800"/>
				<stop  offset="0.6685" style="stop-color:#F18F34"/>
				<stop  offset="0.8876" style="stop-color:#E95F32"/>
				<stop  offset="1" style="stop-color:#E3312D"/>
			</linearGradient>
			
				<ellipse style="fill:url(#SVGID_00000178173558971290375100000002531968846078201505_);" cx="1699.8" cy="856.9" rx="69.8" ry="71.7"/>
		</g>
		<g class="st10">
			
				<linearGradient id="SVGID_00000088824376040651902060000017841382133280425623_" gradientUnits="userSpaceOnUse" x1="1300.2444" y1="1161.521" x2="1300.2444" y2="915.4105">
				<stop  offset="0" style="stop-color:#FFEF26"/>
				<stop  offset="1.783161e-02" style="stop-color:#FFEA21"/>
				<stop  offset="0.102" style="stop-color:#FED70F"/>
				<stop  offset="0.1886" style="stop-color:#FDCC04"/>
				<stop  offset="0.2809" style="stop-color:#FDC800"/>
				<stop  offset="0.6685" style="stop-color:#F18F34"/>
				<stop  offset="0.8876" style="stop-color:#E95F32"/>
				<stop  offset="1" style="stop-color:#E3312D"/>
			</linearGradient>
			<path style="fill:url(#SVGID_00000088824376040651902060000017841382133280425623_);" d="M1233.5,1161.5c-30.9,0-55-27-51.3-57.7
				c12.8-108.1,60.8-188.4,118.1-188.4c57.3,0,105.2,80.3,118.1,188.4c3.6,30.7-20.4,57.7-51.3,57.7H1233.5z"/>
			
				<linearGradient id="SVGID_00000083054845252718652290000007501236329832275349_" gradientUnits="userSpaceOnUse" x1="1300.2444" y1="928.5496" x2="1300.2444" y2="785.2252">
				<stop  offset="0" style="stop-color:#FFEF26"/>
				<stop  offset="1.783161e-02" style="stop-color:#FFEA21"/>
				<stop  offset="0.102" style="stop-color:#FED70F"/>
				<stop  offset="0.1886" style="stop-color:#FDCC04"/>
				<stop  offset="0.2809" style="stop-color:#FDC800"/>
				<stop  offset="0.6685" style="stop-color:#F18F34"/>
				<stop  offset="0.8876" style="stop-color:#E95F32"/>
				<stop  offset="1" style="stop-color:#E3312D"/>
			</linearGradient>
			
				<ellipse style="fill:url(#SVGID_00000083054845252718652290000007501236329832275349_);" cx="1300.2" cy="856.9" rx="69.8" ry="71.7"/>
		</g>
		<g class="st10">
			
				<linearGradient id="SVGID_00000173867440289536896980000016208000786112614567_" gradientUnits="userSpaceOnUse" x1="1514.7014" y1="1161.521" x2="1514.7014" y2="849.0233">
				<stop  offset="0" style="stop-color:#FFEF26"/>
				<stop  offset="1.783161e-02" style="stop-color:#FFEA21"/>
				<stop  offset="0.102" style="stop-color:#FED70F"/>
				<stop  offset="0.1886" style="stop-color:#FDCC04"/>
				<stop  offset="0.2809" style="stop-color:#FDC800"/>
				<stop  offset="0.6685" style="stop-color:#F18F34"/>
				<stop  offset="0.8876" style="stop-color:#E95F32"/>
				<stop  offset="1" style="stop-color:#E3312D"/>
			</linearGradient>
			<path style="fill:url(#SVGID_00000173867440289536896980000016208000786112614567_);" d="M1360.5,1161.5
				c0-172.6,69-312.5,154.2-312.5c85.2,0,154.2,139.9,154.2,312.5"/>
			
				<linearGradient id="SVGID_00000005245241648373018440000008152003457619452308_" gradientUnits="userSpaceOnUse" x1="1514.7014" y1="865.7065" x2="1514.7014" y2="683.7211">
				<stop  offset="0" style="stop-color:#FFEF26"/>
				<stop  offset="1.783161e-02" style="stop-color:#FFEA21"/>
				<stop  offset="0.102" style="stop-color:#FED70F"/>
				<stop  offset="0.1886" style="stop-color:#FDCC04"/>
				<stop  offset="0.2809" style="stop-color:#FDC800"/>
				<stop  offset="0.6685" style="stop-color:#F18F34"/>
				<stop  offset="0.8876" style="stop-color:#E95F32"/>
				<stop  offset="1" style="stop-color:#E3312D"/>
			</linearGradient>
			
				<ellipse style="fill:url(#SVGID_00000005245241648373018440000008152003457619452308_);" cx="1514.7" cy="774.7" rx="88.7" ry="91"/>
		</g>
	</g>
	
		<linearGradient id="SVGID_00000100374077683489290620000017929240840708892855_" gradientUnits="userSpaceOnUse" x1="335.8105" y1="807.7592" x2="2694.1477" y2="807.7592">
		<stop  offset="0" style="stop-color:#FFEF26"/>
		<stop  offset="1.783161e-02" style="stop-color:#FFEA21"/>
		<stop  offset="0.102" style="stop-color:#FED70F"/>
		<stop  offset="0.1886" style="stop-color:#FDCC04"/>
		<stop  offset="0.2809" style="stop-color:#FDC800"/>
		<stop  offset="0.6685" style="stop-color:#F18F34"/>
		<stop  offset="0.8876" style="stop-color:#E95F32"/>
		<stop  offset="1" style="stop-color:#E3312D"/>
	</linearGradient>
	<path style="fill:url(#SVGID_00000100374077683489290620000017929240840708892855_);" d="M335.8,1198.4
		c162.8-262.5,325.6-525.1,488.4-787.6l1869.9,785.1l-1327.5,8.9c-10.2-17.9-169.5-287.9-487.8-303.6
		C658.8,890.3,449,1005.3,335.8,1198.4z"/>
</g>
<g id="Camada_2">
</g>
</svg>
