<?xml version="1.0" encoding="utf-8"?>
<!-- Generator: Adobe Illustrator 26.1.0, SVG Export Plug-In . SVG Version: 6.00 Build 0)  -->
<svg version="1.1" id="Camada_1" xmlns="http://www.w3.org/2000/svg" xmlns:xlink="http://www.w3.org/1999/xlink" x="0px" y="0px"
	 viewBox="0 0 2000 2000" style="enable-background:new 0 0 2000 2000;" xml:space="preserve">
<style type="text/css">
	.st0{fill:#FDCA3F;}
	.st1{fill:url(#SVGID_1_);}
	.st2{display:none;}
	.st3{display:inline;}
	.st4{fill:url(#SVGID_00000064355122868198419220000017730849148224680627_);}
	.st5{fill:url(#SVGID_00000132800809937181475490000013374401021794480313_);}
	.st6{fill:url(#SVGID_00000153693082286705085860000002382257296223146387_);}
	.st7{fill:url(#SVGID_00000087414142746880150600000016458309238171280044_);}
	.st8{fill:url(#SVGID_00000000197543019179172090000005570922267271528073_);}
	.st9{fill:url(#SVGID_00000044137035860256953780000009953782678824961715_);}
	.st10{fill:url(#SVGID_00000160874116062597698880000003689172017112142999_);}
	.st11{fill:url(#SVGID_00000174569887526786173420000018333271721916866971_);}
	.st12{fill:url(#SVGID_00000166663741008329785980000010331092539937081259_);}
	.st13{fill:url(#SVGID_00000041273656912625513680000007416829930758640815_);}
	.st14{fill:url(#SVGID_00000066509473841948096100000014449130873470031503_);}
	.st15{fill:url(#SVGID_00000131348516373125917290000004479913173595546036_);}
	.st16{fill:url(#SVGID_00000081650228603936496620000009825240985768437687_);}
	.st17{fill:url(#SVGID_00000072959023512726481740000011217982422776916370_);}
	.st18{fill:url(#SVGID_00000004510063948706917390000006606212301067408783_);}
	.st19{fill:url(#SVGID_00000004523940924755761040000013749858315996115644_);}
	.st20{fill:url(#SVGID_00000067235707136460740440000015883577909202434713_);}
	.st21{fill:url(#SVGID_00000018934706914929969820000000716380838717755029_);}
	.st22{fill:url(#SVGID_00000053523100485696412740000002064050658396172713_);}
	.st23{fill:url(#SVGID_00000165929458296851324370000009033231733797782950_);}
	.st24{fill:url(#SVGID_00000098907038319221892780000001169599179289992878_);}
	.st25{fill:url(#SVGID_00000107572013856459342790000017711526533611796405_);}
	.st26{fill:url(#SVGID_00000098902823838597812180000001602879080355211921_);}
	.st27{fill:url(#SVGID_00000171707058087342618920000016865023201360055464_);}
	.st28{fill:url(#SVGID_00000090992331476387464080000000894325726381507774_);}
	.st29{fill:url(#SVGID_00000168813948190561191810000006616552331297334660_);}
	.st30{opacity:0.8;}
	.st31{fill:#FDF01C;}
	.st32{fill:#C9A81C;}
	.st33{fill:#FFFFFF;}
	.st34{font-family:'Gotham-Black';}
	.st35{font-size:127.7151px;}
	.st36{fill:url(#SVGID_00000144335077957752450960000012103581178402092169_);}
	.st37{fill:url(#SVGID_00000171678102788298006930000014206092949214407338_);}
</style>
<g>
	<g>
		<path class="st0" d="M1010.6,1566.2c-5.8,5.8-15.4,5.8-21.2,0L361.3,938.1c-5.8-5.8-5.8-15.4,0-21.2l628.1-628.1
			c5.8-5.8,15.4-5.8,21.2,0l628.1,628.1c5.8,5.8,5.8,15.4,0,21.2L1010.6,1566.2z"/>
	</g>
	<g>
		
			<image style="overflow:visible;opacity:0.2;" width="5412" height="5412" xlink:href="DA9FC470.png"  transform="matrix(0.24 0 0 0.24 350.64 277.92)">
		</image>
		
			<image style="overflow:visible;opacity:0.2;" width="5412" height="5412" xlink:href="DA9FC471.png"  transform="matrix(0.24 0 0 0.24 350.64 277.92)">
		</image>
	</g>
	<g>
		
			<image style="overflow:visible;opacity:0.4;" width="5031" height="5030" xlink:href="DA9FC477.png"  transform="matrix(0.24 0 0 0.24 397.32 324.84)">
		</image>
		<g>
			<linearGradient id="SVGID_1_" gradientUnits="userSpaceOnUse" x1="672.1326" y1="1255.3337" x2="1327.8966" y2="599.5696">
				<stop  offset="0" style="stop-color:#FFFFFF"/>
				<stop  offset="0.5114" style="stop-color:#CCCCCC"/>
				<stop  offset="1" style="stop-color:#FCFCFC"/>
			</linearGradient>
			<path class="st1" d="M989.4,380.6c5.8-5.8,15.4-5.8,21.2,0l536.3,536.3c5.8,5.8,5.8,15.4,0,21.2l-536.3,536.3
				c-5.8,5.8-15.4,5.8-21.2,0L453.1,938.1c-5.8-5.8-5.8-15.4,0-21.2L989.4,380.6z M1010.6,337.3c-5.8-5.8-15.4-5.8-21.2,0
				L409.8,916.9c-5.8,5.8-5.8,15.4,0,21.2l579.6,579.6c5.8,5.8,15.4,5.8,21.2,0l579.6-579.6c5.8-5.8,5.8-15.4,0-21.2L1010.6,337.3z"
				/>
		</g>
	</g>
</g>
<g class="st2">
	<g class="st3">
		
			<linearGradient id="SVGID_00000021808803531358908450000011815313701349804172_" gradientUnits="userSpaceOnUse" x1="867.5573" y1="551.4697" x2="1576.8633" y2="551.4697">
			<stop  offset="0" style="stop-color:#1B1936"/>
			<stop  offset="1" style="stop-color:#1B1964"/>
		</linearGradient>
		<path style="fill:url(#SVGID_00000021808803531358908450000011815313701349804172_);" d="M928.1,381.7
			c52.4-61.9,146.4-77.7,220.9-46.4c-29.2-34.6-64.9-41.2-105.4-51.5c38.9-29.8,76.8-13.7,115.2,6.7c-8.4-6.6-14.7-13.5-19.1-22.7
			c38.6-4.7,88.4,28.5,107.6,61c-5.4-17.9,1-45.9,12.3-60.3c-3.8,4.8-15.6,15-25.1,17.2c2.4-25.3,22.3-58.3,7.5-81.5
			c54.5,27.2,90.3,70.7,126.8,120.8c-8.4-6.6-16.6-11.1-26.6-13.1c15.2,17.8,19.7,36.8,20.2,58.6c0.1,9.8-6.3,37.8,3,33.4l-1.3,0.6
			c76.9-21.2,163.7-14.6,211.4,61c-32.1-13.5-67.2-33.2-104-31c14.2,9.2,33.4,14.5,48.5,22.4c-7.1,4.1-18.1,3.3-26.7,4.3
			c50,35.3,98.5,102.4,79.3,169c-38.7-22.5-58.2-67-77-105c-0.6,40.4,30.9,84.5,39.9,122.6c10.7,43.4-0.3,87.2-9.2,130.7
			c-14.9-33-39.2-71.5-46.7-106.5c0.8,6.4-1.5,14.3-1.7,22c-5.1-5.9-10.8-8.5-15-15.6c-1.7,49.2-5.2,100.9-31.3,146.5
			c-1.4-20.5,0.6-40.4-0.8-60.9c-16,20.5-21.9,52.8-36.5,76.3c-16.5,26-34,43.3-59.4,58.4c-6.1-32,9.5-74.1,12.1-107.1
			c0.9-28.4,5.3-63.8,1.9-91.7c-29.4,17.7-59.1,33.3-94.7,36.5c7.4-19.4,23.1-34.4,31.7-52.9c-9.3,4.4-19.5,10-29.3,10.1
			c3.5-35.8,14.7-73.5,20.7-109c-0.3,0.3-3.4,4.7-8.8,12.6c-0.4-0.2-0.8-0.3-1.3-0.4c-13.9-2.3-28.2,0.2-41.9,2.7
			c-2.8,0.5-5.6,0.9-8.6,1.4c12-20.5,12-20.5,12-20.5c0.2-7.6,2.2-17.7,5.5-26.8c-30.9,14.6-62.3,25-89.4,44.6
			c-21.1,14.5-46.6,47-72.3,50.2c8.3-30.4,32.6-54.1,51.3-80.3c-11.9,0.4-23.6,2.9-34.9-0.1c14.6-41,64.1-64.4,101.7-77.7l1.9-2.4
			c-33.5-6.8-97-27.5-127.1-6.4c11.1-16.6,38.3-34.1,54.7-42.6c-12.9,1.6-25.4-2.4-30.9-12.6c-42.4,9.5-86.1,8.3-128,22.1
			c-33.6,10.6-61.8,29.3-93.7,45.1c20.3-48.2,70-96.7,113.9-120.6C964.6,377.2,946.7,382.7,928.1,381.7z"/>
		
			<linearGradient id="SVGID_00000106842728558774157580000003863468582425080213_" gradientUnits="userSpaceOnUse" x1="1107.3806" y1="768.3997" x2="1169.1273" y2="768.3997">
			<stop  offset="0" style="stop-color:#1B1936"/>
			<stop  offset="1" style="stop-color:#1B1964"/>
		</linearGradient>
		<path style="fill:url(#SVGID_00000106842728558774157580000003863468582425080213_);" d="M1131,802.6c-7.7,1.3-15.9,2.5-23.6,0.8
			c10.8-25.3,22-48.9,33.7-71c6.2,15.5,16.6,30.1,28.1,41.2c-3.6,7.6-7.1,15.4-10.6,23.3C1149.3,798.8,1140.3,801,1131,802.6z"/>
		
			<linearGradient id="SVGID_00000183210504149579366720000004959346640618054055_" gradientUnits="userSpaceOnUse" x1="1090.618" y1="849.736" x2="1153.9286" y2="849.736">
			<stop  offset="0" style="stop-color:#1B1936"/>
			<stop  offset="1" style="stop-color:#1B1964"/>
		</linearGradient>
		<path style="fill:url(#SVGID_00000183210504149579366720000004959346640618054055_);" d="M1090.6,845.2c3.9-10.4,7.9-20.6,12-30.4
			c16.3,3.6,34.1-2.2,51.3-7.2c-11.6,26.8-22.6,55.1-32.5,84.4C1106.8,879.2,1096.8,863.1,1090.6,845.2z"/>
		
			<linearGradient id="SVGID_00000023973669282950235830000006155579280326109337_" gradientUnits="userSpaceOnUse" x1="1048.3929" y1="919.9373" x2="1118.1577" y2="919.9373">
			<stop  offset="0" style="stop-color:#1B1936"/>
			<stop  offset="1" style="stop-color:#1B1964"/>
		</linearGradient>
		<path style="fill:url(#SVGID_00000023973669282950235830000006155579280326109337_);" d="M1072.5,975c-8.5,1.7-16.5,2.2-24.2,1.9
			c11-41.1,22.9-78.9,35.6-113.9c9.1,15.3,21.4,28.9,34.1,38.8c-6.8,20.8-12.9,42.1-18.2,63.7C1091.3,969.7,1082,973.1,1072.5,975z"
			/>
		
			<linearGradient id="SVGID_00000057870101142959783760000005782923824743420295_" gradientUnits="userSpaceOnUse" x1="1028.588" y1="1047.2031" x2="1096.748" y2="1047.2031">
			<stop  offset="0" style="stop-color:#1B1936"/>
			<stop  offset="1" style="stop-color:#1B1964"/>
		</linearGradient>
		<path style="fill:url(#SVGID_00000057870101142959783760000005782923824743420295_);" d="M1028.6,1058.7
			c5.2-23.8,10.6-46.6,16.3-68.5c17.5,0.8,35.5-3.3,51.9-10.8c-6.7,29.8-11.8,60.1-14.4,90.5c-1.3,14.9-2.3,29.9-3.1,45.1
			C1057.7,1103.3,1041.1,1081.7,1028.6,1058.7z"/>
		
			<linearGradient id="SVGID_00000147193597744553572950000008428384152913364128_" gradientUnits="userSpaceOnUse" x1="995.9255" y1="1164.0671" x2="1078.6775" y2="1164.0671">
			<stop  offset="0" style="stop-color:#1B1936"/>
			<stop  offset="1" style="stop-color:#1B1964"/>
		</linearGradient>
		<path style="fill:url(#SVGID_00000147193597744553572950000008428384152913364128_);" d="M1030.5,1237.5
			c-10.8,6.2-22.4,11.6-34.6,14.3c1.1-9.7,2.3-19.4,3.6-29.2c7.4-52.5,15.9-101.1,25.3-146.4c14.1,21.1,32.4,39.4,53.8,48.7
			c-1.1,24.4-1.7,49-1.8,73.5C1063.3,1213.8,1047.8,1227.6,1030.5,1237.5z"/>
		
			<linearGradient id="SVGID_00000180337142326239437750000013712814919769934218_" gradientUnits="userSpaceOnUse" x1="991.6228" y1="1260.202" x2="1079.1925" y2="1260.202">
			<stop  offset="0" style="stop-color:#1B1936"/>
			<stop  offset="1" style="stop-color:#1B1964"/>
		</linearGradient>
		<path style="fill:url(#SVGID_00000180337142326239437750000013712814919769934218_);" d="M1079.2,1305.3
			c-1.3-29.4-2.2-59.6-2.3-90.2c-22.6,25-51.8,46.3-82.5,52.1c-1.2,12.8-2.1,25.5-2.8,38.1H1079.2z"/>
		
			<linearGradient id="SVGID_00000152239712922359835200000011010938326460010412_" gradientUnits="userSpaceOnUse" x1="1150.1047" y1="732.8498" x2="1204.6996" y2="732.8498">
			<stop  offset="0" style="stop-color:#1B1936"/>
			<stop  offset="1" style="stop-color:#1B1964"/>
		</linearGradient>
		<path style="fill:url(#SVGID_00000152239712922359835200000011010938326460010412_);" d="M1150.1,715.7c2.6-4.6,5.1-9.1,7.7-13.6
			c14.6,6,32.2,6.8,46.9,1.2c-10,18.5-20.4,38.7-30.8,60.3C1162,749.8,1153.1,733.3,1150.1,715.7z"/>
		
			<linearGradient id="SVGID_00000147904098546134095400000011802135516447544499_" gradientUnits="userSpaceOnUse" x1="1163.9668" y1="665.7899" x2="1224.3754" y2="665.7899">
			<stop  offset="0" style="stop-color:#1B1936"/>
			<stop  offset="1" style="stop-color:#1B1964"/>
		</linearGradient>
		<path style="fill:url(#SVGID_00000147904098546134095400000011802135516447544499_);" d="M1171.7,694.3c-2.5-0.7-5.1-1.8-7.7-2.8
			c13.6-23.2,24.3-41.6,32.8-56.1c7.5,13.3,18,25.4,27.6,32.9c-4.1,7.1-8.4,14.7-12.8,22.5C1198.5,696,1185.6,698.1,1171.7,694.3z"
			/>
		
			<linearGradient id="SVGID_00000098208042478720006970000008582474106510503081_" gradientUnits="userSpaceOnUse" x1="1204.9109" y1="632.0314" x2="1263.436" y2="632.0314">
			<stop  offset="0" style="stop-color:#1B1936"/>
			<stop  offset="1" style="stop-color:#1B1964"/>
		</linearGradient>
		<path style="fill:url(#SVGID_00000098208042478720006970000008582474106510503081_);" d="M1212.4,637.1
			c-3.3-5.3-5.6-10.4-7.5-15.6c0.9-1.5,1.8-3,2.6-4.5c5.2-1.4,10.4-2.8,15.3-3.9c13.4-3.1,27.3-4.7,40.6-7.9
			c-8.4,12.7-20.1,31-33.6,53.8C1224.9,651.3,1217.2,644.7,1212.4,637.1z"/>
		<g>
			
				<linearGradient id="SVGID_00000144319341106449708280000012038072902052733829_" gradientUnits="userSpaceOnUse" x1="655.7961" y1="694.9683" x2="683.6228" y2="694.9683">
				<stop  offset="0" style="stop-color:#1B1936"/>
				<stop  offset="1" style="stop-color:#1B1964"/>
			</linearGradient>
			<path style="fill:url(#SVGID_00000144319341106449708280000012038072902052733829_);" d="M663.4,714.8c-2.4,1.2-5.1,2.2-7.6,3.4
				c0.2-21.6,1.7-37.3,3-46.4c0,1.5,0.8,3.1,2.6,4.4c7.1,5.1,16.1,9.8,22.2,16.4c-0.1,1.6-0.2,3.4-0.3,5.3
				C677.9,705.2,671.7,710.7,663.4,714.8z"/>
			
				<linearGradient id="SVGID_00000074435253662634416610000005306153750184265131_" gradientUnits="userSpaceOnUse" x1="655.8636" y1="728.7615" x2="686.4259" y2="728.7615">
				<stop  offset="0" style="stop-color:#1B1936"/>
				<stop  offset="1" style="stop-color:#1B1964"/>
			</linearGradient>
			<path style="fill:url(#SVGID_00000074435253662634416610000005306153750184265131_);" d="M670.4,741.8
				c-5.6-0.9-10.2-1.8-14.3-4.3c-0.1-3-0.2-6-0.2-8.9c7.7-2.5,15.4-7.2,21.4-11.9c2.3-1.8,4.3-3.6,6.1-5.6
				c0.3,8.8,1.1,19.7,2.8,33.6c0.1,0.6,0.2,1.2,0.2,1.7C681.9,743.4,675.4,742.6,670.4,741.8z"/>
			
				<linearGradient id="SVGID_00000088819666027580828050000012401349904039857327_" gradientUnits="userSpaceOnUse" x1="656.5447" y1="775.9905" x2="693.6434" y2="775.9905">
				<stop  offset="0" style="stop-color:#1B1936"/>
				<stop  offset="1" style="stop-color:#1B1964"/>
			</linearGradient>
			<path style="fill:url(#SVGID_00000088819666027580828050000012401349904039857327_);" d="M662.2,803.6c-3-20.4-4.7-38.9-5.6-55.2
				c9.3,2.5,20.5,2.5,27.6,6.9c1.2,0.7,2.5,0.4,3.6-0.4c1.4,8.4,3.4,17.5,5.9,27.3C682,785.7,671,793.7,662.2,803.6z"/>
			
				<linearGradient id="SVGID_00000157266549877744811260000007953292808053045178_" gradientUnits="userSpaceOnUse" x1="699.6856" y1="923.2574" x2="766.8134" y2="923.2574">
				<stop  offset="0" style="stop-color:#1B1936"/>
				<stop  offset="1" style="stop-color:#1B1964"/>
			</linearGradient>
			<path style="fill:url(#SVGID_00000157266549877744811260000007953292808053045178_);" d="M766.8,955.6
				c-21.9,3.7-42.6-0.1-65.5-1.4c-0.5-1.5-1.1-3.1-1.7-4.6c15.9-14.5,26.4-38.5,33.7-60.4C743,910.1,754.1,932.3,766.8,955.6z"/>
			
				<linearGradient id="SVGID_00000148638095300430282190000016228869229420245632_" gradientUnits="userSpaceOnUse" x1="773.0463" y1="1142.8564" x2="862.4667" y2="1142.8564">
				<stop  offset="0" style="stop-color:#1B1936"/>
				<stop  offset="1" style="stop-color:#1B1964"/>
			</linearGradient>
			<path style="fill:url(#SVGID_00000148638095300430282190000016228869229420245632_);" d="M862.5,1108.8c-0.2,0.4-0.3,0.9-0.3,1.3
				c-0.5,30.3-6.3,58-17.3,84.4c-26.4-29.1-50.8-59.9-71.8-92.2c26.3,2.4,52.4-2,77.2-11.1C854.3,1097,858.3,1102.9,862.5,1108.8z"
				/>
			
				<linearGradient id="SVGID_00000119801052285797247500000002546941826408578486_" gradientUnits="userSpaceOnUse" x1="868.4473" y1="1248.1327" x2="975.6222" y2="1248.1327">
				<stop  offset="0" style="stop-color:#1B1936"/>
				<stop  offset="1" style="stop-color:#1B1964"/>
			</linearGradient>
			<path style="fill:url(#SVGID_00000119801052285797247500000002546941826408578486_);" d="M937.8,1193.3
				c11.8,10.6,24,20.8,36.6,30.5c4.7,26.7-5.2,53.4-13.8,79.1c-31.7-25.7-62.9-53.6-92.2-83.4
				C892.9,1218.3,917.1,1207.2,937.8,1193.3z"/>
			
				<linearGradient id="SVGID_00000036239613306888564890000016155945339280158339_" gradientUnits="userSpaceOnUse" x1="968.7891" y1="1267.6849" x2="1059.1464" y2="1267.6849">
				<stop  offset="0" style="stop-color:#1B1936"/>
				<stop  offset="1" style="stop-color:#1B1964"/>
			</linearGradient>
			<path style="fill:url(#SVGID_00000036239613306888564890000016155945339280158339_);" d="M968.8,1305.3h62.2
				c10.9-6.2,20.5-14,28.1-23.6c-25.7-15.5-51.7-32.8-76.6-51.7C985.6,1254.9,978.5,1282,968.8,1305.3z"/>
			
				<linearGradient id="SVGID_00000078040962211751435690000015518150472565196177_" gradientUnits="userSpaceOnUse" x1="1047.6268" y1="1295.5453" x2="1096.748" y2="1295.5453">
				<stop  offset="0" style="stop-color:#1B1936"/>
				<stop  offset="1" style="stop-color:#1B1964"/>
			</linearGradient>
			<path style="fill:url(#SVGID_00000078040962211751435690000015518150472565196177_);" d="M1096.7,1305.3
				c-0.2-0.8-0.5-1.5-0.7-2.3c-9.9-5.5-20-11.2-30.1-17.3c-4.9,7.4-11.2,13.9-18.3,19.5H1096.7z"/>
			
				<linearGradient id="SVGID_00000094603269129279343460000008887982234825014963_" gradientUnits="userSpaceOnUse" x1="853.609" y1="1165.2543" x2="931.8282" y2="1165.2543">
				<stop  offset="0" style="stop-color:#1B1936"/>
				<stop  offset="1" style="stop-color:#1B1964"/>
			</linearGradient>
			<path style="fill:url(#SVGID_00000094603269129279343460000008887982234825014963_);" d="M859.1,1209.8c-1.8-1.9-3.6-3.8-5.4-5.8
				c3.4-8.3,6.2-16.8,8.4-24.8c5.3-18.5,10-38.9,8.9-58.5c17.5,23.9,38.2,46.3,60.8,67.2C909.5,1200.9,884.7,1210.2,859.1,1209.8z"
				/>
			
				<linearGradient id="SVGID_00000088095418750572398560000011916532161613119931_" gradientUnits="userSpaceOnUse" x1="755.1938" y1="1050.6217" x2="845.8014" y2="1050.6217">
				<stop  offset="0" style="stop-color:#1B1936"/>
				<stop  offset="1" style="stop-color:#1B1964"/>
			</linearGradient>
			<path style="fill:url(#SVGID_00000088095418750572398560000011916532161613119931_);" d="M796.9,1008.2
				c14.7,24.4,31,50,48.9,76.5c-25.9,7.3-51.1,9.5-78.9,8.1c-4-6.5-7.9-13-11.7-19.6C775.4,1057.7,790.9,1033.4,796.9,1008.2z"/>
			
				<linearGradient id="SVGID_00000134251505690625248050000010671046189383833264_" gradientUnits="userSpaceOnUse" x1="704.7905" y1="1014.2676" x2="789.408" y2="1014.2676">
				<stop  offset="0" style="stop-color:#1B1936"/>
				<stop  offset="1" style="stop-color:#1B1964"/>
			</linearGradient>
			<path style="fill:url(#SVGID_00000134251505690625248050000010671046189383833264_);" d="M771,963.3c5.8,10.5,12,21.3,18.4,32.3
				c-7.1,27.1-18.4,50.6-38.6,69.7c-4-7.2-7.8-14.6-11.4-21.9c-13.6-27.9-25-54.5-34.6-79.9C726.3,967.1,750.2,969.9,771,963.3z"/>
			
				<linearGradient id="SVGID_00000111171985217664150790000009935263192613432704_" gradientUnits="userSpaceOnUse" x1="671.077" y1="893.0394" x2="726.0891" y2="893.0394">
				<stop  offset="0" style="stop-color:#1B1936"/>
				<stop  offset="1" style="stop-color:#1B1964"/>
			</linearGradient>
			<path style="fill:url(#SVGID_00000111171985217664150790000009935263192613432704_);" d="M710.5,912.5c-4.2,8.4-8.7,17-15.1,23.9
				c-0.1,0.1-0.2,0.2-0.2,0.2c-10.4-30.5-18.3-58.9-24-85c14.9,3,31.9,2.9,45.2-2.2c3,7.6,6.3,15.4,9.8,23.4
				C720.5,885.9,716.8,899.9,710.5,912.5z"/>
			
				<linearGradient id="SVGID_00000063621312693319371130000015053743921912517791_" gradientUnits="userSpaceOnUse" x1="664.2783" y1="818.0952" x2="712.569" y2="818.0952">
				<stop  offset="0" style="stop-color:#1B1936"/>
				<stop  offset="1" style="stop-color:#1B1964"/>
			</linearGradient>
			<path style="fill:url(#SVGID_00000063621312693319371130000015053743921912517791_);" d="M668.3,838.8
				c-1.5-7.5-2.9-14.8-4.1-21.8c3.5-4,7.3-7.7,11.3-10.9c6.8-5.5,14-8.8,21.2-12.4c4.1,14.2,9.4,29.7,15.8,46.4
				C698.3,844.7,683.4,841.8,668.3,838.8z"/>
			
				<linearGradient id="SVGID_00000115472551492526110710000008284134990930883714_" gradientUnits="userSpaceOnUse" x1="492.8693" y1="652.9157" x2="893.9521" y2="652.9157">
				<stop  offset="0" style="stop-color:#1B1936"/>
				<stop  offset="1" style="stop-color:#1B1964"/>
			</linearGradient>
			<path style="fill:url(#SVGID_00000115472551492526110710000008284134990930883714_);" d="M571.6,582.9c-4.9-0.2-7.8-2.4-12.3-3.4
				c3.9-2.2,7.4-5.6,10.9-7c-20.3,5.9-47,3.9-68.3,5.4c20.2-16.7,39.8-34.6,65.3-41.2c22.3-6,54-1.9,74.8-13.4
				c-25,0.8-53.5,3.1-76-10.7c29.2-28.5,77.6-22,109.8-5.9c-1.9-4.8-5.4-10.2-5.2-15.1c8.3,5.6,16.4,14.1,25.1,18.9
				c-9-19.7-29-32.4-45-45.4c52.5,3.7,80.1,46.9,90.5,92.8l0-0.9c0.3,6,13.1-5.1,18.2-7.8c11.4-5.8,22.6-8.8,36-5.8
				c-3.9-4.6-8.4-7.6-14.2-10.2c36.2,5.1,68.7,11.5,98,32.2c-16.2-1.2-27.7,18.3-40.2,26.6c-1.5-5.6,0.5-14.5,1.9-17.8
				c-4.3,9.9-17.1,21-27.9,23.2c22.2,0.9,53.3,17.5,61.6,38.9c-6,0.3-11.3-1-17.1-3.6c21.3,14.3,40.2,29.5,35.6,57.9
				c-16.6-18.1-30-34.8-56.1-40.4c37,30,55,83.2,37.4,127.6c-5.7-9.4-7.9-20.2-10.4-30.1c-0.2,29.4-11.5,68.7-30.9,92.7
				c-0.6-20.9,1.2-40.8-2.6-61.2c-4.5-25.6-17.3-47.9-24.2-72.6c-6.9-0.1-12.4-5.4-15.2-12.6c0.1,10.9-1.3,29.9-6.9,40.3
				c2.6-21.5-25.8-48.7-38.7-64.2l-0.7,1.6c3.6,23.2,5.2,55.4-12,74.4c-4.7-5-6.6-11.8-9.8-18.1c-8.4,17-13.9,36.2-27.4,49
				c-5.5-14.2,4.2-36.5,5.9-51.5c2.7-19.5-0.7-38.7-1.7-58.8c-3.8,4.2-8.5,8.1-12.4,10.3c-0.5-1.4-0.7-2.8-0.9-4.3
				c-0.4,2.4-1,4.9-1.7,8.2c-5.3-5.1-12.1-9.2-17.6-13.1c-3.7-2.6-7.6-0.6-8.5,2.3c0.7-5.1,1.3-7.7,1.3-7.8
				c-12.8,10.8-25.7,22.6-39.2,31.6c-2.7-5.1-2.6-12-2.9-18c-7.2,9.6-10.6,21.9-18.6,31.2c-8.2-19.4-8.4-39.1-7.4-59.3
				c-15.4,6-32.6,18.2-47.1,26.5c-16.4,10.5-34,30.3-52.3,36.1c0.8-17.4,4.9-31.3,13.8-47.1c8.2-14.1,23.3-26.2,29.5-40.2
				c-11,5-20.8,11.5-31.9,16.5C520.7,613.7,546.5,597.5,571.6,582.9z"/>
			
				<linearGradient id="SVGID_00000048464381790376891630000017018980683203183543_" gradientUnits="userSpaceOnUse" x1="686.913" y1="664.2274" x2="686.9536" y2="664.2274">
				<stop  offset="0" style="stop-color:#1B1936"/>
				<stop  offset="1" style="stop-color:#1B1964"/>
			</linearGradient>
			<path style="fill:url(#SVGID_00000048464381790376891630000017018980683203183543_);" d="M686.9,664.3c0-0.1,0-0.1,0-0.2
				L686.9,664.3C686.9,664.3,686.9,664.3,686.9,664.3z"/>
		</g>
	</g>
	<g class="st3">
		<g>
			<g>
				
					<linearGradient id="SVGID_00000003787634582201917060000008575223706265104534_" gradientUnits="userSpaceOnUse" x1="640.2073" y1="1260.012" x2="1355.7629" y2="1260.012">
					<stop  offset="0" style="stop-color:#1B1936"/>
					<stop  offset="1" style="stop-color:#1B1964"/>
				</linearGradient>
				<path style="fill:url(#SVGID_00000003787634582201917060000008575223706265104534_);" d="M998,1159.7
					c151.4,0,284.1,80.3,357.8,200.6H640.2C713.9,1240,846.6,1159.7,998,1159.7z"/>
			</g>
		</g>
	</g>
</g>
<g class="st30">
	
		<image style="overflow:visible;opacity:0.4;" width="5463" height="933" xlink:href="DA9FC472.png"  transform="matrix(0.24 0 0 0.24 344.5916 1352.5917)">
	</image>
	<g>
		<path class="st31" d="M1590,1358.6H410c-32.7,0-59.3,26.1-59.3,58.3v94.9c0,32.2,26.5,58.4,59.3,58.4h1180
			c32.7,0,59.3-26.1,59.3-58.4V1417C1649.3,1384.8,1622.8,1358.6,1590,1358.6z"/>
	</g>
</g>
<g>
	
		<image style="overflow:visible;opacity:0.4;" width="5463" height="933" xlink:href="DA9FC473.png"  transform="matrix(0.24 0 0 0.24 344.5916 1352.5917)">
	</image>
	<g>
		<path class="st32" d="M1590,1358.6H410c-32.7,0-59.3,26.1-59.3,58.3v94.9c0,32.2,26.5,58.4,59.3,58.4h1180
			c32.7,0,59.3-26.1,59.3-58.4V1417C1649.3,1384.8,1622.8,1358.6,1590,1358.6z"/>
	</g>
</g>
<g>
	<text transform="matrix(1 0 0 1 614.1324 1500.4661)" class="st33 st34 st35">HOTELARIA</text>
</g>
<g>
	
		<linearGradient id="SVGID_00000029727930594759029270000012578941695569345925_" gradientUnits="userSpaceOnUse" x1="836.5767" y1="445.6766" x2="932.7391" y2="445.6766">
		<stop  offset="0" style="stop-color:#1B1936"/>
		<stop  offset="1" style="stop-color:#1B1964"/>
	</linearGradient>
	<path style="fill:url(#SVGID_00000029727930594759029270000012578941695569345925_);" d="M919.5,410.5
		c-8.8-9.5-20.4-14.2-34.9-14.2s-26.1,4.7-34.9,14.2c-8.8,9.5-13.2,21.2-13.2,35.2c0,14,4.4,25.7,13.2,35.2
		c8.8,9.5,20.4,14.2,34.9,14.2s26.1-4.7,34.9-14.2c8.8-9.5,13.2-21.2,13.2-35.2C932.7,431.7,928.3,420,919.5,410.5z"/>
	
		<linearGradient id="SVGID_00000111164317241014599960000001306234061654552484_" gradientUnits="userSpaceOnUse" x1="539.0061" y1="850.4428" x2="1440.7875" y2="850.4428">
		<stop  offset="0" style="stop-color:#1B1936"/>
		<stop  offset="1" style="stop-color:#1B1964"/>
	</linearGradient>
	<path style="fill:url(#SVGID_00000111164317241014599960000001306234061654552484_);" d="M1399.5,1281.5h-9V566.1
		c0-42.1-33.6-76.7-75.4-78.6V380.1c0-23.6-19.4-42.9-43.1-42.9H686.3c-23.7,0-43.1,19.3-43.1,42.9v109.4
		c-34.9,8.2-61.1,39.5-61.1,76.6v715.4h-1.8c-22.7,0-41.3,18.5-41.3,41.1s18.6,41.1,41.3,41.1h80.8h229.9h201.2h219.2h88
		c22.7,0,41.3-18.5,41.3-41.1S1422.2,1281.5,1399.5,1281.5z M1190.6,384.8h17.7v108h65.5v13.8h-83.2V384.8z M1089.9,384.8h79.6v13.8
		h-61.9v36.8h55.1v13.8h-55.1v43.5h61.9v13.8h-79.6V384.8z M958.6,384.8h116.1v13.8h-48.9v108h-17.7v-108h-49.5V384.8z M936,973.8
		h118.6V1099H936V973.8z M934.2,716.3V591.1h118.6v125.2H934.2z M936,909.5V784.3h118.6v125.2H936z M693.2,384.8h17.7v50.2h69.2
		v-50.2h17.7v121.8h-17.7v-57.8h-69.2v57.8h-17.7V384.8z M682.7,591.1h118.6v125.2H682.7V591.1z M803.1,784.3v125.2H684.5V784.3
		H803.1z M684.5,973.8h118.6V1099H684.5V973.8z M804.9,1281.5H686.3v-125.2h118.6V1281.5z M884.7,509.1c-19.3,0-35.1-6.1-47.2-18.2
		c-12.2-12.1-18.3-27.1-18.3-45c0-17.9,6.1-33,18.3-45.2c12.2-12.2,27.9-18.3,47.2-18.3c19.3,0,35.1,6.1,47.2,18.3
		c12.2,12.2,18.3,27.3,18.3,45.2c0,17.9-6.1,32.9-18.3,45C919.7,503.1,904,509.1,884.7,509.1z M1092.3,1281.5H891.1v-125.2h46.7
		h118.6h35.9V1281.5z M1160.6,591.1h118.6v125.2h-118.6V591.1z M1280.9,784.3v125.2h-118.6V784.3H1280.9z M1162.3,973.8h118.6V1099
		h-118.6V973.8z M1282.7,1281.5h-118.6v-125.2h118.6V1281.5z"/>
</g>
</svg>
