<?xml version="1.0" encoding="utf-8"?>
<!-- Generator: Adobe Illustrator 26.1.0, SVG Export Plug-In . SVG Version: 6.00 Build 0)  -->
<svg version="1.1" id="Camada_1" xmlns="http://www.w3.org/2000/svg" xmlns:xlink="http://www.w3.org/1999/xlink" x="0px" y="0px"
	 viewBox="0 0 2000 2000" style="enable-background:new 0 0 2000 2000;" xml:space="preserve">
<style type="text/css">
	.st0{fill:#FDCA3F;}
	.st1{fill:url(#SVGID_1_);}
	.st2{display:none;}
	.st3{display:inline;}
	.st4{fill:url(#SVGID_00000102503005766670092340000006821210362119515025_);}
	.st5{fill:url(#SVGID_00000002348656260774616690000003013205114849406863_);}
	.st6{fill:url(#SVGID_00000087387741432537340660000009091061135804530306_);}
	.st7{fill:url(#SVGID_00000102502793179943884420000003809929161692777364_);}
	.st8{fill:url(#SVGID_00000057845144938986777970000008526797578401314454_);}
	.st9{fill:url(#SVGID_00000105409797700388833510000010062366700766762423_);}
	.st10{fill:url(#SVGID_00000126299795154677752870000002134371981404734109_);}
	.st11{fill:url(#SVGID_00000159441289203416593380000018149211347308179130_);}
	.st12{fill:url(#SVGID_00000062870880834022783650000016415506161021226914_);}
	.st13{fill:url(#SVGID_00000004515632139380050420000010144262427938231731_);}
	.st14{fill:url(#SVGID_00000034075080759904842590000002170601984575570576_);}
	.st15{fill:url(#SVGID_00000096019078620711759290000011431510944210475912_);}
	.st16{fill:url(#SVGID_00000008122744688285583720000014594147666975584951_);}
	.st17{fill:url(#SVGID_00000101820102798883326520000003675671233555486893_);}
	.st18{fill:url(#SVGID_00000045611659684787274640000015615223168699795643_);}
	.st19{fill:url(#SVGID_00000030475094382042331160000000453617635287335605_);}
	.st20{fill:url(#SVGID_00000121978409895515485510000002714811560205235363_);}
	.st21{fill:url(#SVGID_00000052805690976467596340000006783623501327501225_);}
	.st22{fill:url(#SVGID_00000157307605698092600800000008882123086973038741_);}
	.st23{fill:url(#SVGID_00000062192087987702951700000007761369335288570805_);}
	.st24{fill:url(#SVGID_00000111909111322046256550000017678849861855978425_);}
	.st25{fill:url(#SVGID_00000001659811669104766260000018073561678374493850_);}
	.st26{fill:url(#SVGID_00000064318253713265038980000006958939616746815928_);}
	.st27{fill:url(#SVGID_00000071555147661811353240000008622785286921161857_);}
	.st28{fill:url(#SVGID_00000028321313907327727060000014003244260590126777_);}
	.st29{fill:url(#SVGID_00000120518954141307788540000014644994139404968326_);}
	.st30{opacity:0.8;}
	.st31{fill:#FDF01C;}
	.st32{fill:#C9A81C;}
	.st33{fill:#FFFFFF;}
	.st34{font-family:'Gotham-Black';}
	.st35{font-size:127.7151px;}
	.st36{fill:url(#SVGID_00000098221623070625434480000018002423100853135515_);}
	.st37{fill:url(#SVGID_00000165915994987818600490000002326459259780478609_);}
	.st38{fill:url(#SVGID_00000129899989062320540370000000919390712212854452_);}
	.st39{fill:url(#SVGID_00000057138896397033743580000008901943531571503497_);}
	.st40{fill:url(#SVGID_00000032624611911209355970000011492321508462108802_);}
	.st41{fill:url(#SVGID_00000015321053504499650230000008211780277996077454_);}
	.st42{fill:url(#SVGID_00000087375704963357116940000012280392908548272317_);}
	.st43{fill:url(#SVGID_00000142153097984822633150000014554831852215924360_);}
</style>
<g>
	<g>
		<path class="st0" d="M1010.6,1566.2c-5.8,5.8-15.4,5.8-21.2,0L361.3,938.1c-5.8-5.8-5.8-15.4,0-21.2l628.1-628.1
			c5.8-5.8,15.4-5.8,21.2,0l628.1,628.1c5.8,5.8,5.8,15.4,0,21.2L1010.6,1566.2z"/>
	</g>
	<g>
		
			<image style="overflow:visible;opacity:0.2;" width="5412" height="5412" xlink:href="925B5B19.png"  transform="matrix(0.24 0 0 0.24 350.64 277.92)">
		</image>
		
			<image style="overflow:visible;opacity:0.2;" width="5412" height="5412" xlink:href="925B5B1B.png"  transform="matrix(0.24 0 0 0.24 350.64 277.92)">
		</image>
	</g>
	<g>
		
			<image style="overflow:visible;opacity:0.4;" width="5031" height="5030" xlink:href="925B5B1E.png"  transform="matrix(0.24 0 0 0.24 397.32 324.84)">
		</image>
		<g>
			<linearGradient id="SVGID_1_" gradientUnits="userSpaceOnUse" x1="672.1326" y1="1255.3337" x2="1327.8966" y2="599.5696">
				<stop  offset="0" style="stop-color:#FFFFFF"/>
				<stop  offset="0.5114" style="stop-color:#CCCCCC"/>
				<stop  offset="1" style="stop-color:#FCFCFC"/>
			</linearGradient>
			<path class="st1" d="M989.4,380.6c5.8-5.8,15.4-5.8,21.2,0l536.3,536.3c5.8,5.8,5.8,15.4,0,21.2l-536.3,536.3
				c-5.8,5.8-15.4,5.8-21.2,0L453.1,938.1c-5.8-5.8-5.8-15.4,0-21.2L989.4,380.6z M1010.6,337.3c-5.8-5.8-15.4-5.8-21.2,0
				L409.8,916.9c-5.8,5.8-5.8,15.4,0,21.2l579.6,579.6c5.8,5.8,15.4,5.8,21.2,0l579.6-579.6c5.8-5.8,5.8-15.4,0-21.2L1010.6,337.3z"
				/>
		</g>
	</g>
</g>
<g class="st2">
	<g class="st3">
		
			<linearGradient id="SVGID_00000063603435282263387580000007823823275613461666_" gradientUnits="userSpaceOnUse" x1="867.5573" y1="551.4697" x2="1576.8633" y2="551.4697">
			<stop  offset="0" style="stop-color:#1B1936"/>
			<stop  offset="1" style="stop-color:#1B1964"/>
		</linearGradient>
		<path style="fill:url(#SVGID_00000063603435282263387580000007823823275613461666_);" d="M928.1,381.7
			c52.4-61.9,146.4-77.7,220.9-46.4c-29.2-34.6-64.9-41.2-105.4-51.5c38.9-29.8,76.8-13.7,115.2,6.7c-8.4-6.6-14.7-13.5-19.1-22.7
			c38.6-4.7,88.4,28.5,107.6,61c-5.4-17.9,1-45.9,12.3-60.3c-3.8,4.8-15.6,15-25.1,17.2c2.4-25.3,22.3-58.3,7.5-81.5
			c54.5,27.2,90.3,70.7,126.8,120.8c-8.4-6.6-16.6-11.1-26.6-13.1c15.2,17.8,19.7,36.8,20.2,58.6c0.1,9.8-6.3,37.8,3,33.4l-1.3,0.6
			c76.9-21.2,163.7-14.6,211.4,61c-32.1-13.5-67.2-33.2-104-31c14.2,9.2,33.4,14.5,48.5,22.4c-7.1,4.1-18.1,3.3-26.7,4.3
			c50,35.3,98.5,102.4,79.3,169c-38.7-22.5-58.2-67-77-105c-0.6,40.4,30.9,84.5,39.9,122.6c10.7,43.4-0.3,87.2-9.2,130.7
			c-14.9-33-39.2-71.5-46.7-106.5c0.8,6.4-1.5,14.3-1.7,22c-5.1-5.9-10.8-8.5-15-15.6c-1.7,49.2-5.2,100.9-31.3,146.5
			c-1.4-20.5,0.6-40.4-0.8-60.9c-16,20.5-21.9,52.8-36.5,76.3c-16.5,26-34,43.3-59.4,58.4c-6.1-32,9.5-74.1,12.1-107.1
			c0.9-28.4,5.3-63.8,1.9-91.7c-29.4,17.7-59.1,33.3-94.7,36.5c7.4-19.4,23.1-34.4,31.7-52.9c-9.3,4.4-19.5,10-29.3,10.1
			c3.5-35.8,14.7-73.5,20.7-109c-0.3,0.3-3.4,4.7-8.8,12.6c-0.4-0.2-0.8-0.3-1.3-0.4c-13.9-2.3-28.2,0.2-41.9,2.7
			c-2.8,0.5-5.6,0.9-8.6,1.4c12-20.5,12-20.5,12-20.5c0.2-7.6,2.2-17.7,5.5-26.8c-30.9,14.6-62.3,25-89.4,44.6
			c-21.1,14.5-46.6,47-72.3,50.2c8.3-30.4,32.6-54.1,51.3-80.3c-11.9,0.4-23.6,2.9-34.9-0.1c14.6-41,64.1-64.4,101.7-77.7l1.9-2.4
			c-33.5-6.8-97-27.5-127.1-6.4c11.1-16.6,38.3-34.1,54.7-42.6c-12.9,1.6-25.4-2.4-30.9-12.6c-42.4,9.5-86.1,8.3-128,22.1
			c-33.6,10.6-61.8,29.3-93.7,45.1c20.3-48.2,70-96.7,113.9-120.6C964.6,377.2,946.7,382.7,928.1,381.7z"/>
		
			<linearGradient id="SVGID_00000127003846305478053460000005237021579754864285_" gradientUnits="userSpaceOnUse" x1="1107.3806" y1="768.3997" x2="1169.1273" y2="768.3997">
			<stop  offset="0" style="stop-color:#1B1936"/>
			<stop  offset="1" style="stop-color:#1B1964"/>
		</linearGradient>
		<path style="fill:url(#SVGID_00000127003846305478053460000005237021579754864285_);" d="M1131,802.6c-7.7,1.3-15.9,2.5-23.6,0.8
			c10.8-25.3,22-48.9,33.7-71c6.2,15.5,16.6,30.1,28.1,41.2c-3.6,7.6-7.1,15.4-10.6,23.3C1149.3,798.8,1140.3,801,1131,802.6z"/>
		
			<linearGradient id="SVGID_00000138566620483118976760000002014711661183885240_" gradientUnits="userSpaceOnUse" x1="1090.618" y1="849.736" x2="1153.9286" y2="849.736">
			<stop  offset="0" style="stop-color:#1B1936"/>
			<stop  offset="1" style="stop-color:#1B1964"/>
		</linearGradient>
		<path style="fill:url(#SVGID_00000138566620483118976760000002014711661183885240_);" d="M1090.6,845.2c3.9-10.4,7.9-20.6,12-30.4
			c16.3,3.6,34.1-2.2,51.3-7.2c-11.6,26.8-22.6,55.1-32.5,84.4C1106.8,879.2,1096.8,863.1,1090.6,845.2z"/>
		
			<linearGradient id="SVGID_00000034784988205748975270000014850870526656458897_" gradientUnits="userSpaceOnUse" x1="1048.3929" y1="919.9373" x2="1118.1577" y2="919.9373">
			<stop  offset="0" style="stop-color:#1B1936"/>
			<stop  offset="1" style="stop-color:#1B1964"/>
		</linearGradient>
		<path style="fill:url(#SVGID_00000034784988205748975270000014850870526656458897_);" d="M1072.5,975c-8.5,1.7-16.5,2.2-24.2,1.9
			c11-41.1,22.9-78.9,35.6-113.9c9.1,15.3,21.4,28.9,34.1,38.8c-6.8,20.8-12.9,42.1-18.2,63.7C1091.3,969.7,1082,973.1,1072.5,975z"
			/>
		
			<linearGradient id="SVGID_00000049202476933248207070000016772960216071864192_" gradientUnits="userSpaceOnUse" x1="1028.588" y1="1047.2031" x2="1096.748" y2="1047.2031">
			<stop  offset="0" style="stop-color:#1B1936"/>
			<stop  offset="1" style="stop-color:#1B1964"/>
		</linearGradient>
		<path style="fill:url(#SVGID_00000049202476933248207070000016772960216071864192_);" d="M1028.6,1058.7
			c5.2-23.8,10.6-46.6,16.3-68.5c17.5,0.8,35.5-3.3,51.9-10.8c-6.7,29.8-11.8,60.1-14.4,90.5c-1.3,14.9-2.3,29.9-3.1,45.1
			C1057.7,1103.3,1041.1,1081.7,1028.6,1058.7z"/>
		
			<linearGradient id="SVGID_00000013185815388459013500000002533894961430435502_" gradientUnits="userSpaceOnUse" x1="995.9255" y1="1164.0671" x2="1078.6775" y2="1164.0671">
			<stop  offset="0" style="stop-color:#1B1936"/>
			<stop  offset="1" style="stop-color:#1B1964"/>
		</linearGradient>
		<path style="fill:url(#SVGID_00000013185815388459013500000002533894961430435502_);" d="M1030.5,1237.5
			c-10.8,6.2-22.4,11.6-34.6,14.3c1.1-9.7,2.3-19.4,3.6-29.2c7.4-52.5,15.9-101.1,25.3-146.4c14.1,21.1,32.4,39.4,53.8,48.7
			c-1.1,24.4-1.7,49-1.8,73.5C1063.3,1213.8,1047.8,1227.6,1030.5,1237.5z"/>
		
			<linearGradient id="SVGID_00000123422213209845729410000002100786949244498062_" gradientUnits="userSpaceOnUse" x1="991.6228" y1="1260.202" x2="1079.1925" y2="1260.202">
			<stop  offset="0" style="stop-color:#1B1936"/>
			<stop  offset="1" style="stop-color:#1B1964"/>
		</linearGradient>
		<path style="fill:url(#SVGID_00000123422213209845729410000002100786949244498062_);" d="M1079.2,1305.3
			c-1.3-29.4-2.2-59.6-2.3-90.2c-22.6,25-51.8,46.3-82.5,52.1c-1.2,12.8-2.1,25.5-2.8,38.1H1079.2z"/>
		
			<linearGradient id="SVGID_00000061440558948316543590000000494192186604909203_" gradientUnits="userSpaceOnUse" x1="1150.1047" y1="732.8498" x2="1204.6996" y2="732.8498">
			<stop  offset="0" style="stop-color:#1B1936"/>
			<stop  offset="1" style="stop-color:#1B1964"/>
		</linearGradient>
		<path style="fill:url(#SVGID_00000061440558948316543590000000494192186604909203_);" d="M1150.1,715.7c2.6-4.6,5.1-9.1,7.7-13.6
			c14.6,6,32.2,6.8,46.9,1.2c-10,18.5-20.4,38.7-30.8,60.3C1162,749.8,1153.1,733.3,1150.1,715.7z"/>
		
			<linearGradient id="SVGID_00000067208005955612935920000002966690651880595598_" gradientUnits="userSpaceOnUse" x1="1163.9668" y1="665.7899" x2="1224.3754" y2="665.7899">
			<stop  offset="0" style="stop-color:#1B1936"/>
			<stop  offset="1" style="stop-color:#1B1964"/>
		</linearGradient>
		<path style="fill:url(#SVGID_00000067208005955612935920000002966690651880595598_);" d="M1171.7,694.3c-2.5-0.7-5.1-1.8-7.7-2.8
			c13.6-23.2,24.3-41.6,32.8-56.1c7.5,13.3,18,25.4,27.6,32.9c-4.1,7.1-8.4,14.7-12.8,22.5C1198.5,696,1185.6,698.1,1171.7,694.3z"
			/>
		
			<linearGradient id="SVGID_00000115502063877952321240000009133767632292799896_" gradientUnits="userSpaceOnUse" x1="1204.9109" y1="632.0314" x2="1263.436" y2="632.0314">
			<stop  offset="0" style="stop-color:#1B1936"/>
			<stop  offset="1" style="stop-color:#1B1964"/>
		</linearGradient>
		<path style="fill:url(#SVGID_00000115502063877952321240000009133767632292799896_);" d="M1212.4,637.1
			c-3.3-5.3-5.6-10.4-7.5-15.6c0.9-1.5,1.8-3,2.6-4.5c5.2-1.4,10.4-2.8,15.3-3.9c13.4-3.1,27.3-4.7,40.6-7.9
			c-8.4,12.7-20.1,31-33.6,53.8C1224.9,651.3,1217.2,644.7,1212.4,637.1z"/>
		<g>
			
				<linearGradient id="SVGID_00000132051466374710384220000001157724788314670239_" gradientUnits="userSpaceOnUse" x1="655.7961" y1="694.9683" x2="683.6228" y2="694.9683">
				<stop  offset="0" style="stop-color:#1B1936"/>
				<stop  offset="1" style="stop-color:#1B1964"/>
			</linearGradient>
			<path style="fill:url(#SVGID_00000132051466374710384220000001157724788314670239_);" d="M663.4,714.8c-2.4,1.2-5.1,2.2-7.6,3.4
				c0.2-21.6,1.7-37.3,3-46.4c0,1.5,0.8,3.1,2.6,4.4c7.1,5.1,16.1,9.8,22.2,16.4c-0.1,1.6-0.2,3.4-0.3,5.3
				C677.9,705.2,671.7,710.7,663.4,714.8z"/>
			
				<linearGradient id="SVGID_00000114788493086444037030000012546844853254912947_" gradientUnits="userSpaceOnUse" x1="655.8636" y1="728.7615" x2="686.4259" y2="728.7615">
				<stop  offset="0" style="stop-color:#1B1936"/>
				<stop  offset="1" style="stop-color:#1B1964"/>
			</linearGradient>
			<path style="fill:url(#SVGID_00000114788493086444037030000012546844853254912947_);" d="M670.4,741.8
				c-5.6-0.9-10.2-1.8-14.3-4.3c-0.1-3-0.2-6-0.2-8.9c7.7-2.5,15.4-7.2,21.4-11.9c2.3-1.8,4.3-3.6,6.1-5.6
				c0.3,8.8,1.1,19.7,2.8,33.6c0.1,0.6,0.2,1.2,0.2,1.7C681.9,743.4,675.4,742.6,670.4,741.8z"/>
			
				<linearGradient id="SVGID_00000163790479014754935570000006303974176730712496_" gradientUnits="userSpaceOnUse" x1="656.5447" y1="775.9905" x2="693.6434" y2="775.9905">
				<stop  offset="0" style="stop-color:#1B1936"/>
				<stop  offset="1" style="stop-color:#1B1964"/>
			</linearGradient>
			<path style="fill:url(#SVGID_00000163790479014754935570000006303974176730712496_);" d="M662.2,803.6c-3-20.4-4.7-38.9-5.6-55.2
				c9.3,2.5,20.5,2.5,27.6,6.9c1.2,0.7,2.5,0.4,3.6-0.4c1.4,8.4,3.4,17.5,5.9,27.3C682,785.7,671,793.7,662.2,803.6z"/>
			
				<linearGradient id="SVGID_00000064328653832274552300000008493216818386654639_" gradientUnits="userSpaceOnUse" x1="699.6856" y1="923.2574" x2="766.8134" y2="923.2574">
				<stop  offset="0" style="stop-color:#1B1936"/>
				<stop  offset="1" style="stop-color:#1B1964"/>
			</linearGradient>
			<path style="fill:url(#SVGID_00000064328653832274552300000008493216818386654639_);" d="M766.8,955.6
				c-21.9,3.7-42.6-0.1-65.5-1.4c-0.5-1.5-1.1-3.1-1.7-4.6c15.9-14.5,26.4-38.5,33.7-60.4C743,910.1,754.1,932.3,766.8,955.6z"/>
			
				<linearGradient id="SVGID_00000045590289909566424710000016280571903262753703_" gradientUnits="userSpaceOnUse" x1="773.0463" y1="1142.8564" x2="862.4667" y2="1142.8564">
				<stop  offset="0" style="stop-color:#1B1936"/>
				<stop  offset="1" style="stop-color:#1B1964"/>
			</linearGradient>
			<path style="fill:url(#SVGID_00000045590289909566424710000016280571903262753703_);" d="M862.5,1108.8c-0.2,0.4-0.3,0.9-0.3,1.3
				c-0.5,30.3-6.3,58-17.3,84.4c-26.4-29.1-50.8-59.9-71.8-92.2c26.3,2.4,52.4-2,77.2-11.1C854.3,1097,858.3,1102.9,862.5,1108.8z"
				/>
			
				<linearGradient id="SVGID_00000161631085313308613410000002543736861810013631_" gradientUnits="userSpaceOnUse" x1="868.4473" y1="1248.1327" x2="975.6222" y2="1248.1327">
				<stop  offset="0" style="stop-color:#1B1936"/>
				<stop  offset="1" style="stop-color:#1B1964"/>
			</linearGradient>
			<path style="fill:url(#SVGID_00000161631085313308613410000002543736861810013631_);" d="M937.8,1193.3
				c11.8,10.6,24,20.8,36.6,30.5c4.7,26.7-5.2,53.4-13.8,79.1c-31.7-25.7-62.9-53.6-92.2-83.4
				C892.9,1218.3,917.1,1207.2,937.8,1193.3z"/>
			
				<linearGradient id="SVGID_00000002356686457081910740000002198940857368975009_" gradientUnits="userSpaceOnUse" x1="968.7891" y1="1267.6849" x2="1059.1464" y2="1267.6849">
				<stop  offset="0" style="stop-color:#1B1936"/>
				<stop  offset="1" style="stop-color:#1B1964"/>
			</linearGradient>
			<path style="fill:url(#SVGID_00000002356686457081910740000002198940857368975009_);" d="M968.8,1305.3h62.2
				c10.9-6.2,20.5-14,28.1-23.6c-25.7-15.5-51.7-32.8-76.6-51.7C985.6,1254.9,978.5,1282,968.8,1305.3z"/>
			
				<linearGradient id="SVGID_00000156578960615568009470000018202735281564224401_" gradientUnits="userSpaceOnUse" x1="1047.6268" y1="1295.5453" x2="1096.748" y2="1295.5453">
				<stop  offset="0" style="stop-color:#1B1936"/>
				<stop  offset="1" style="stop-color:#1B1964"/>
			</linearGradient>
			<path style="fill:url(#SVGID_00000156578960615568009470000018202735281564224401_);" d="M1096.7,1305.3
				c-0.2-0.8-0.5-1.5-0.7-2.3c-9.9-5.5-20-11.2-30.1-17.3c-4.9,7.4-11.2,13.9-18.3,19.5H1096.7z"/>
			
				<linearGradient id="SVGID_00000073719199775489172260000003813722147668512946_" gradientUnits="userSpaceOnUse" x1="853.609" y1="1165.2543" x2="931.8282" y2="1165.2543">
				<stop  offset="0" style="stop-color:#1B1936"/>
				<stop  offset="1" style="stop-color:#1B1964"/>
			</linearGradient>
			<path style="fill:url(#SVGID_00000073719199775489172260000003813722147668512946_);" d="M859.1,1209.8c-1.8-1.9-3.6-3.8-5.4-5.8
				c3.4-8.3,6.2-16.8,8.4-24.8c5.3-18.5,10-38.9,8.9-58.5c17.5,23.9,38.2,46.3,60.8,67.2C909.5,1200.9,884.7,1210.2,859.1,1209.8z"
				/>
			
				<linearGradient id="SVGID_00000036935614626683920610000016849995021778804658_" gradientUnits="userSpaceOnUse" x1="755.1938" y1="1050.6217" x2="845.8014" y2="1050.6217">
				<stop  offset="0" style="stop-color:#1B1936"/>
				<stop  offset="1" style="stop-color:#1B1964"/>
			</linearGradient>
			<path style="fill:url(#SVGID_00000036935614626683920610000016849995021778804658_);" d="M796.9,1008.2
				c14.7,24.4,31,50,48.9,76.5c-25.9,7.3-51.1,9.5-78.9,8.1c-4-6.5-7.9-13-11.7-19.6C775.4,1057.7,790.9,1033.4,796.9,1008.2z"/>
			
				<linearGradient id="SVGID_00000122691627508052104720000010998412491034683579_" gradientUnits="userSpaceOnUse" x1="704.7905" y1="1014.2676" x2="789.408" y2="1014.2676">
				<stop  offset="0" style="stop-color:#1B1936"/>
				<stop  offset="1" style="stop-color:#1B1964"/>
			</linearGradient>
			<path style="fill:url(#SVGID_00000122691627508052104720000010998412491034683579_);" d="M771,963.3c5.8,10.5,12,21.3,18.4,32.3
				c-7.1,27.1-18.4,50.6-38.6,69.7c-4-7.2-7.8-14.6-11.4-21.9c-13.6-27.9-25-54.5-34.6-79.9C726.3,967.1,750.2,969.9,771,963.3z"/>
			
				<linearGradient id="SVGID_00000126293211552511098750000003896791742144783802_" gradientUnits="userSpaceOnUse" x1="671.077" y1="893.0394" x2="726.0891" y2="893.0394">
				<stop  offset="0" style="stop-color:#1B1936"/>
				<stop  offset="1" style="stop-color:#1B1964"/>
			</linearGradient>
			<path style="fill:url(#SVGID_00000126293211552511098750000003896791742144783802_);" d="M710.5,912.5c-4.2,8.4-8.7,17-15.1,23.9
				c-0.1,0.1-0.2,0.2-0.2,0.2c-10.4-30.5-18.3-58.9-24-85c14.9,3,31.9,2.9,45.2-2.2c3,7.6,6.3,15.4,9.8,23.4
				C720.5,885.9,716.8,899.9,710.5,912.5z"/>
			
				<linearGradient id="SVGID_00000018205426137757994220000005901244476227073664_" gradientUnits="userSpaceOnUse" x1="664.2783" y1="818.0952" x2="712.569" y2="818.0952">
				<stop  offset="0" style="stop-color:#1B1936"/>
				<stop  offset="1" style="stop-color:#1B1964"/>
			</linearGradient>
			<path style="fill:url(#SVGID_00000018205426137757994220000005901244476227073664_);" d="M668.3,838.8
				c-1.5-7.5-2.9-14.8-4.1-21.8c3.5-4,7.3-7.7,11.3-10.9c6.8-5.5,14-8.8,21.2-12.4c4.1,14.2,9.4,29.7,15.8,46.4
				C698.3,844.7,683.4,841.8,668.3,838.8z"/>
			
				<linearGradient id="SVGID_00000022525313181210302890000013417460665184273820_" gradientUnits="userSpaceOnUse" x1="492.8693" y1="652.9157" x2="893.9521" y2="652.9157">
				<stop  offset="0" style="stop-color:#1B1936"/>
				<stop  offset="1" style="stop-color:#1B1964"/>
			</linearGradient>
			<path style="fill:url(#SVGID_00000022525313181210302890000013417460665184273820_);" d="M571.6,582.9c-4.9-0.2-7.8-2.4-12.3-3.4
				c3.9-2.2,7.4-5.6,10.9-7c-20.3,5.9-47,3.9-68.3,5.4c20.2-16.7,39.8-34.6,65.3-41.2c22.3-6,54-1.9,74.8-13.4
				c-25,0.8-53.5,3.1-76-10.7c29.2-28.5,77.6-22,109.8-5.9c-1.9-4.8-5.4-10.2-5.2-15.1c8.3,5.6,16.4,14.1,25.1,18.9
				c-9-19.7-29-32.4-45-45.4c52.5,3.7,80.1,46.9,90.5,92.8l0-0.9c0.3,6,13.1-5.1,18.2-7.8c11.4-5.8,22.6-8.8,36-5.8
				c-3.9-4.6-8.4-7.6-14.2-10.2c36.2,5.1,68.7,11.5,98,32.2c-16.2-1.2-27.7,18.3-40.2,26.6c-1.5-5.6,0.5-14.5,1.9-17.8
				c-4.3,9.9-17.1,21-27.9,23.2c22.2,0.9,53.3,17.5,61.6,38.9c-6,0.3-11.3-1-17.1-3.6c21.3,14.3,40.2,29.5,35.6,57.9
				c-16.6-18.1-30-34.8-56.1-40.4c37,30,55,83.2,37.4,127.6c-5.7-9.4-7.9-20.2-10.4-30.1c-0.2,29.4-11.5,68.7-30.9,92.7
				c-0.6-20.9,1.2-40.8-2.6-61.2c-4.5-25.6-17.3-47.9-24.2-72.6c-6.9-0.1-12.4-5.4-15.2-12.6c0.1,10.9-1.3,29.9-6.9,40.3
				c2.6-21.5-25.8-48.7-38.7-64.2l-0.7,1.6c3.6,23.2,5.2,55.4-12,74.4c-4.7-5-6.6-11.8-9.8-18.1c-8.4,17-13.9,36.2-27.4,49
				c-5.5-14.2,4.2-36.5,5.9-51.5c2.7-19.5-0.7-38.7-1.7-58.8c-3.8,4.2-8.5,8.1-12.4,10.3c-0.5-1.4-0.7-2.8-0.9-4.3
				c-0.4,2.4-1,4.9-1.7,8.2c-5.3-5.1-12.1-9.2-17.6-13.1c-3.7-2.6-7.6-0.6-8.5,2.3c0.7-5.1,1.3-7.7,1.3-7.8
				c-12.8,10.8-25.7,22.6-39.2,31.6c-2.7-5.1-2.6-12-2.9-18c-7.2,9.6-10.6,21.9-18.6,31.2c-8.2-19.4-8.4-39.1-7.4-59.3
				c-15.4,6-32.6,18.2-47.1,26.5c-16.4,10.5-34,30.3-52.3,36.1c0.8-17.4,4.9-31.3,13.8-47.1c8.2-14.1,23.3-26.2,29.5-40.2
				c-11,5-20.8,11.5-31.9,16.5C520.7,613.7,546.5,597.5,571.6,582.9z"/>
			
				<linearGradient id="SVGID_00000100366643894753435660000002771168573122322327_" gradientUnits="userSpaceOnUse" x1="686.913" y1="664.2274" x2="686.9536" y2="664.2274">
				<stop  offset="0" style="stop-color:#1B1936"/>
				<stop  offset="1" style="stop-color:#1B1964"/>
			</linearGradient>
			<path style="fill:url(#SVGID_00000100366643894753435660000002771168573122322327_);" d="M686.9,664.3c0-0.1,0-0.1,0-0.2
				L686.9,664.3C686.9,664.3,686.9,664.3,686.9,664.3z"/>
		</g>
	</g>
	<g class="st3">
		<g>
			<g>
				
					<linearGradient id="SVGID_00000057856777979533437300000003876401628311415731_" gradientUnits="userSpaceOnUse" x1="640.2073" y1="1260.012" x2="1355.7629" y2="1260.012">
					<stop  offset="0" style="stop-color:#1B1936"/>
					<stop  offset="1" style="stop-color:#1B1964"/>
				</linearGradient>
				<path style="fill:url(#SVGID_00000057856777979533437300000003876401628311415731_);" d="M998,1159.7
					c151.4,0,284.1,80.3,357.8,200.6H640.2C713.9,1240,846.6,1159.7,998,1159.7z"/>
			</g>
		</g>
	</g>
</g>
<g class="st30">
	
		<image style="overflow:visible;opacity:0.4;" width="5463" height="933" xlink:href="925B5B1F.png"  transform="matrix(0.24 0 0 0.24 344.5916 1352.5917)">
	</image>
	<g>
		<path class="st31" d="M1590,1358.6H410c-32.7,0-59.3,26.1-59.3,58.3v94.9c0,32.2,26.5,58.4,59.3,58.4h1180
			c32.7,0,59.3-26.1,59.3-58.4V1417C1649.3,1384.8,1622.8,1358.6,1590,1358.6z"/>
	</g>
</g>
<g>
	
		<image style="overflow:visible;opacity:0.4;" width="5463" height="933" xlink:href="925B5B1A.png"  transform="matrix(0.24 0 0 0.24 344.5916 1352.5917)">
	</image>
	<g>
		<path class="st32" d="M1590,1358.6H410c-32.7,0-59.3,26.1-59.3,58.3v94.9c0,32.2,26.5,58.4,59.3,58.4h1180
			c32.7,0,59.3-26.1,59.3-58.4V1417C1649.3,1384.8,1622.8,1358.6,1590,1358.6z"/>
	</g>
</g>
<g>
	<text transform="matrix(1 0 0 1 566.385 1500.4661)" class="st33 st34 st35">PATRIMÔNIO</text>
</g>
<g>
	<g>
		
			<linearGradient id="SVGID_00000008121991963550723650000011076190984648336529_" gradientUnits="userSpaceOnUse" x1="538.3363" y1="1002.3737" x2="964.7294" y2="1002.3737">
			<stop  offset="0" style="stop-color:#1B1936"/>
			<stop  offset="1" style="stop-color:#1B1964"/>
		</linearGradient>
		<path style="fill:url(#SVGID_00000008121991963550723650000011076190984648336529_);" d="M599.8,757.4
			c2.6,5.3,43.8,84.6,54.1,96.7c10.2,12.1,147.2,109.1,160.6,126.6c13.7,17.9,19.7,28.8,3.5,114.9c-3.5,18.5-33,140.4-61.3,263.1
			h182c10.2-140.8,25.2-349.2,25.8-358.9C966,974,960,922.4,950,895.6c-7-18.9-34.5-67.9-91.5-93.2c-56.9-25.3-108.5-64-118.6-72
			c-10.1-8-41.6-25-54.6-14.3c-13,10.7,13.4,41.3,31.4,57.3c15.8,14.1,56,32.8,60.1,49.7c2.9,12.3,0.2,27.8-30.5,19.5
			c-35.8-9.7-70.4-45.6-84.2-67.1c-13.8-21.5-56.9-86.4-71.6-103.3c-14.7-16.9-33-26.2-44.6-26.2c-11.5,0.1-9.4,13.5,3.7,29.5
			C562.7,691.7,591.5,740.5,599.8,757.4z"/>
		
			<linearGradient id="SVGID_00000112607334394911827400000017268893388359787905_" gradientUnits="userSpaceOnUse" x1="730.7867" y1="708.4838" x2="778.4158" y2="708.4838">
			<stop  offset="0" style="stop-color:#1B1936"/>
			<stop  offset="1" style="stop-color:#1B1964"/>
		</linearGradient>
		<path style="fill:url(#SVGID_00000112607334394911827400000017268893388359787905_);" d="M778.4,752.8c0,0-12.7-7.7-23.7-16.1
			c-11-8.5-20.7-15-20.7-15s0.2-17.6-3.2-48.5c-0.3-3.1,2.5-12.3,12-7.7C752.8,670.3,775.2,689.4,778.4,752.8z"/>
		
			<linearGradient id="SVGID_00000026862895326039923250000001922914883840950414_" gradientUnits="userSpaceOnUse" x1="658.016" y1="657.8201" x2="718.3195" y2="657.8201">
			<stop  offset="0" style="stop-color:#1B1936"/>
			<stop  offset="1" style="stop-color:#1B1964"/>
		</linearGradient>
		<path style="fill:url(#SVGID_00000026862895326039923250000001922914883840950414_);" d="M718.3,713.3c0,0-6.7-29.5-8.6-45.9
			c-2-16.4-11.7-46.2-24.3-59c-10.8-10.9-31-16.4-26.7,2.1c4.5,19.6,10,38.4,12.8,64.2c2.8,25.9,5.6,42.5,5.6,42.5
			S685,698,718.3,713.3z"/>
		
			<linearGradient id="SVGID_00000147211589297095309620000008424754203478771607_" gradientUnits="userSpaceOnUse" x1="578.5195" y1="712.567" x2="773.1963" y2="712.567">
			<stop  offset="0" style="stop-color:#1B1936"/>
			<stop  offset="1" style="stop-color:#1B1964"/>
		</linearGradient>
		<path style="fill:url(#SVGID_00000147211589297095309620000008424754203478771607_);" d="M618,703.3c0,0-25.8-73.3-32.6-89.2
			s-10.1-28.1-2.5-29.8c7.7-1.7,22.5,0.4,38.2,24.3c15.6,23.9,24.5,50.3,27.9,58.7c3.5,8.4,22.4,70.5,59.2,103.7
			c0,0,10.3,9.4,20.4,16.1c9.3,6.1,32,20.9,36.3,25.6c4.4,4.6,14,15.2,4,26.1c-10,10.8-68.2-13.5-100.3-61.1
			C637.2,731.1,618,703.3,618,703.3z"/>
	</g>
	<g>
		
			<linearGradient id="SVGID_00000072278598038095283800000003628163657890603953_" gradientUnits="userSpaceOnUse" x1="1035.2706" y1="1002.3737" x2="1461.6637" y2="1002.3737">
			<stop  offset="0" style="stop-color:#1B1936"/>
			<stop  offset="1" style="stop-color:#1B1964"/>
		</linearGradient>
		<path style="fill:url(#SVGID_00000072278598038095283800000003628163657890603953_);" d="M1061.3,1358.6h182
			c-28.2-122.7-57.8-244.6-61.3-263.1c-16.2-86.1-10.1-97,3.5-114.9c13.3-17.5,150.3-114.5,160.6-126.6
			c10.2-12.1,51.5-91.4,54.1-96.7c8.2-16.9,37.1-65.7,50.2-81.8c13.1-16,15.2-29.5,3.7-29.5c-11.5-0.1-29.9,9.3-44.6,26.2
			c-14.7,16.9-57.8,81.8-71.6,103.3c-13.8,21.5-48.5,57.4-84.2,67.1c-30.7,8.3-33.4-7.2-30.5-19.5c4-16.9,44.2-35.6,60.1-49.7
			c18-16,44.4-46.6,31.4-57.3c-13-10.7-44.5,6.3-54.6,14.3c-10.1,8-61.7,46.7-118.6,72c-56.9,25.3-84.4,74.3-91.5,93.2
			c-10,26.8-16,78.5-14.4,104.1C1036.1,1009.5,1051.1,1217.8,1061.3,1358.6z"/>
		
			<linearGradient id="SVGID_00000044152778264874889430000004390013726714273942_" gradientUnits="userSpaceOnUse" x1="1221.5842" y1="708.4838" x2="1269.2133" y2="708.4838">
			<stop  offset="0" style="stop-color:#1B1936"/>
			<stop  offset="1" style="stop-color:#1B1964"/>
		</linearGradient>
		<path style="fill:url(#SVGID_00000044152778264874889430000004390013726714273942_);" d="M1221.6,752.8c0,0,12.7-7.7,23.7-16.1
			c11-8.5,20.7-15,20.7-15s-0.2-17.6,3.2-48.5c0.3-3.1-2.5-12.3-12-7.7C1247.2,670.3,1224.8,689.4,1221.6,752.8z"/>
		
			<linearGradient id="SVGID_00000127008449405524440060000005683828953804822955_" gradientUnits="userSpaceOnUse" x1="1281.6804" y1="657.8201" x2="1341.984" y2="657.8201">
			<stop  offset="0" style="stop-color:#1B1936"/>
			<stop  offset="1" style="stop-color:#1B1964"/>
		</linearGradient>
		<path style="fill:url(#SVGID_00000127008449405524440060000005683828953804822955_);" d="M1281.7,713.3c0,0,6.7-29.5,8.6-45.9
			c2-16.4,11.7-46.2,24.3-59c10.8-10.9,31-16.4,26.7,2.1c-4.5,19.6-10,38.4-12.8,64.2c-2.8,25.9-5.6,42.5-5.6,42.5
			S1315,698,1281.7,713.3z"/>
		
			<linearGradient id="SVGID_00000033354744000132452900000000844036694042564782_" gradientUnits="userSpaceOnUse" x1="1226.8037" y1="712.567" x2="1421.4805" y2="712.567">
			<stop  offset="0" style="stop-color:#1B1936"/>
			<stop  offset="1" style="stop-color:#1B1964"/>
		</linearGradient>
		<path style="fill:url(#SVGID_00000033354744000132452900000000844036694042564782_);" d="M1382,703.3c0,0,25.8-73.3,32.6-89.2
			s10.1-28.1,2.5-29.8c-7.7-1.7-22.5,0.4-38.2,24.3c-15.6,23.9-24.5,50.3-27.9,58.7c-3.5,8.4-22.4,70.5-59.2,103.7
			c0,0-10.3,9.4-20.4,16.1c-9.3,6.1-32,20.9-36.3,25.6c-4.4,4.6-14,15.2-4,26.1s68.2-13.5,100.3-61.1
			C1362.8,731.1,1382,703.3,1382,703.3z"/>
	</g>
</g>
<image style="overflow:visible;" width="1024" height="1024" xlink:href="../1024px-Unesco_Cultural_Heritage_logo.svg.png"  transform="matrix(0.554 0 0 0.554 716 185)">
</image>
</svg>
